<mxfile host="app.diagrams.net" modified="2024-07-10T23:34:43.735Z" agent="Mozilla/5.0 (Windows NT 10.0; Win64; x64) AppleWebKit/537.36 (KHTML, like Gecko) Chrome/126.0.0.0 Safari/537.36" version="24.6.4" etag="3gccEzUmVGDzhY8Ljvqd" type="github">
  <diagram name="PÃ¡gina-1" id="g2as7Fa_96cL3wbmdRqi">
    <mxGraphModel>
      <root>
        <mxCell id="0" />
        <mxCell id="1" parent="0" />
      </root>
    </mxGraphModel>
  </diagram>
</mxfile>
